/* XPM */
static char *_[] = {
/* columns rows colors chars-per-pixel */
"64 64 40 1 ",
"  c #2A2A2A",
". c gray17",
"X c #393939",
"o c #3A3A3A",
"O c #3E3E3E",
"+ c #3F3F3F",
"@ c #720000",
"# c #730000",
"$ c #434343",
"% c #444444",
"& c #484848",
"* c #494949",
"= c #515151",
"- c gray32",
"; c #5A5A5A",
": c #5B5B5B",
"> c gray37",
", c #5F5F5F",
"< c gray40",
"1 c #676767",
"2 c #6F6F6F",
"3 c #777777",
"4 c gray47",
"5 c #830000",
"6 c #840000",
"7 c #940000",
"8 c #950000",
"9 c #A50000",
"0 c #A60000",
"q c #B50000",
"w c #B60000",
"e c #C40000",
"r c #C50000",
"t c #D30000",
"y c #D40000",
"u c #E70000",
"i c #E80000",
"p c #F50000",
"a c #F60000",
"s c red",
/* pixels */
"&&&&&&&&&*&*&&&&&**&*&&&**&&&*&&&&*&&*&*&**&&*&&&&&*&&&&&*&&&&&&",
"1&1;;;;;1;;:;;;1;*;;;;;;:<11111;;;:;;;;;11<111<;;::&*&:;<1;;;;;*",
"*sssssssssssp;;<ssssssssssssssssssssp;&1ssssssssssssssssssssssa;",
";sssssypsysp0o;1ssysysysrsususrsrssaqo;*sassssssqsesssysarsusaeo",
";saeayauqptq9o;1ssttpyqpaqupaqupqpuq7o;1spae9ayqtarypayaeyp8aq9o",
";sraaquppqp8@o;1stspyaqptaqaqyepqueq8o;;sqa0ya9aqaraya9puepeaq6o",
":saeturaqtaq@o;1sstaytuaqyqatqueyqaq@o*;sqpray9pqqaaqptaarp7at6o",
":seaaqauquq8@o;;ssyaqpqaqaquyqeaqueq8o&;sip9tpeyqyrata9artpraq@o",
";spqt7qr8qtq@o&1iuqq6yqqyq6qyqyq6tqq@o&;sqq7qq6y6q8t5q6t96qtqt@o",
";e999@@@@@@@@o&;e99888788888@@@@@@@@@o&;t9099990999888888887#@#o",
";;oooooooo.. o&1;ooooo.. ..oo....ooooo;1&ooooooooooo.....ooooooo",
"1***&;;;;&&&&&;&;;;;;;;&*&1;;;&&;:;;;;1*;111<243211;;=*=1&1;;:1*",
"sssssssssssssssp;1;sssssssssssssssssssssssssssssssssa:-<ssssssss",
"syysuesruts9sya@&;1sqssrs9ysytsipyrtayataes9stussusa@*;&ssesysys",
"yayaryt9py9taaq@o;;ssqaeaaya9pq9yaepra0apy9ataqypqaq@&;1sseayeau",
"qaayu9prtyi9pyq@o&;sqayutt9ytway9aye9rtta8yrpwpqapqq#o-:seaaprpe",
"aytatreyrpu9p9w@o*;sqpara9ya9qa0tpetea9ay8p9pqyqaqaq@o&:sseaeaue",
"qa9aqyri9a9yaaq@o;1ss8aeay9y8tq0pte8ra9y8ta9taqtaqpq@.*;sraa8ary",
"qs0q5equwuq8uqq#o;1saqy7qiqy9wy8quqi9yqyt8uqqt5qiqyq@ =1sarw8quq",
"@666566666666@@@&;1p9999999999999887888887888788888#@ ;&a9@9@@9@",
"Xoo.ooo.. ooo..o&;*;&%oooooo%$&*$ooo.... ooo... ooooo&:1;ooooooo",
"11;&&;1&1&;;&&&*:;1;;;=&=*=*-;;;1&1;=&&&--;;1-&&=;;;1;1&1=*-1;;;",
"1ssssssssssssssssssssssssssa:11sssssssssssssssssssssssssssssssp;",
"1syssrsesrsysyssystsyss9ssq@&:1ssqspsypsysuse9atqyaryautarya7a#o",
"&ssypuaeqyaayutpt9aqay0ypqs@o;2ssua9a9yquy9a9ya9aqpeaya9auraeq@o",
";s9paqy8p0aqptip0tpqyay0raq@o13sseaea9aquprprat9pqqauqutaaea8q@o",
";ssyp6a8qtayqepey9ra9ay0aq8@o12sqaquy9yuqa9y9yaryqtrpya9artaeq@o",
"<sq9a6yra9p8a0at0yat9a9yees@o;1ssqaqptatqa9a8qq6p6a8a5aay06qyq@o",
";sa0qqq7q6qqy9yqqtqq9ququqq#o&1saqiwt7qqqq9yqy6a7qa6qy6p8p6aqq@o",
";ai99999999999990666665666@@o&1a99099999999099888877888878@8e8#o",
";:*ooooooooooooooooo&&&oooooo;;;XooooooX.....o*&&X ..ooooooooooo",
"1<11<;:&;**&;<441<1;;;--*&=&&=1;;:1&1;1;-&=&=:11;;=&-;;;1*1;;;1&",
"ssssssssssp;&1sssssssssssssssssssssssssa;11sssssssssssssssssssss",
"asasussssa@*;&sa9aqpa9ptaaqpt9pp9apqarp@&;1sarpqpa9aryeawataepqa",
"artauaeatq@o;1s9aeyaeauqpyyqyyat9pqya9a@&11sa8pqay9ayaeyyiqieuyq",
"trpuraeiaq@o;*s9paruaqaqata8p5ytatqipea@&13saeaqayaypaeaqutaurpq",
"ayraiauetq@&;1su9arpr8uyyyqta9at9yuqyar@&13sraaqp0aaeeaeayuiyrqy",
"pyearpeuaq#&;;s9ae7iaqtyptpqy69u9puqprp@*;1saepaqatyraepqutaeyaq",
"qqtuqquqwq@&:;u9aa8aeqaqp9a8t0pt0uqua9e@o:1sa8awpptatpraqiqurapq",
"@@6565656@@o;;a99999999088777887787888#@o;;a9999999999990998888@",
"oooooooooooo;1:o. . oo&&&o  ...ooooooooo&;;;oooo&&;&oX ..oooooXo",
"1;<&:&*;:&&&&;:&&&;;;;;11;;&&*1;;;1*;&;&;;<;1*1:1231,;;*1;1;1&1&",
"&ssssssssssssssssssssssssssssssp&1*sssssssssssssssssssssssssssp;",
"<spyyp9paeiaraqyp9arayp9a9aaeqa@&;1sap9p9p8aqp7at8uyqayraruqta@o",
";sp9ay9pyuea9t8pi0p8tit9pearaqu@o;;stp9y9e8y7uea8p0pqyqpteup9y@o",
";sy9a9yq9a9atrta0uty8ea6u8t9yyq#o&;sya99ype8ae8ua8aqqaqaeaqy0a#o",
"&spyat9ayrupra8ta9a8ya8iprpapqr@o*;sa9ay9a8aquee8y9aeyuturqptp@o",
"1sp9ta9a9a9p9aqp90a8yraet9u9yqa@.&1sp99p9e7a7a7u8a9yqaqepeuy9q@o",
"&sa9a0twtueaytyau9yr89a6aqueaqa@ &1swa9y9p8rpe8uqt9pqaqpruqp9p@o",
"1p99909999966666666666666666666@o;1p0999990098778865655666666@@o",
"&;oXXooooooo&&&o....ooo.. .Xo. oo;&;Xooooo. .o$&%o.oooo ..oooooo",
"<&1&1;1:;;;1341;1*<;<:=*&&=;<;;&;;1&1;;;;:;;;,111>;;;;&O..+&;;1;",
"sssssssssssssssssa;1;sssssssssssssssssssssssssa;&1ssssssssssssss",
"ea8ap9u0aesea9prp#o;:saapa9a6ara9p0aup9a9a7pq0@&;1sp9ta7pqaqp9aw",
"arraep9ur9a8r9y9t@o;;sraqa9q6rurpt9yi9rtqy8a9a@%;1s9p8pqaqyaqay5",
"ar8ra9i0epe8at9ue@o;=sreqp9era8p6aa9p0a9y7yy0q@o;1s9aqqaayqtq9qy",
"ru8u99p9aep8rq9a9@o;=sp5qp9a6ari9a9te0a9py8qi9@o;1sa97ayqqaqa0qa",
"9aea9a9ta9ae7ypet@o;=s6aa9prqt8e6a9a9er9tq8yq9@o;;s9aypqptqq7aqa",
"9aer9uu0u0r8p0a9u@o;;s6pqp9rrt6i9t6pr0ay9p8p7y@o*;s9a8q8aqaq79p6",
"eu8a99y9rra7a9qte@o;1sp5qa9a5y9a9aq9a9ra0tqy9y@o*;s998a7pwpqa9aq",
"6566666665666666@@o;;a@@##@655656665666666666@@ :1a@@66666666666",
"oooooooooooooXooooo;<;&$%oooooooooXoooo .  .o.. *;;oooooo.....oo",
"&1&1*&&;;;;;11*;;;:11111;;;1;;;1:;&;;;-&&=*&=;=*=1;;&1:;;;=&-;;;",
"111111<11111111111111111<111111111111111111<11111111111111111111"
};
