/* XPM */
static char *ea[] = {
/* columns rows colors chars-per-pixel */
"64 64 15 1 ",
"  c #020E04",
". c #031306",
"X c #011B07",
"o c #041508",
"O c #031B09",
"+ c #012207",
"@ c #002907",
"# c #022309",
"$ c #012B0A",
"% c #01320A",
"& c #013C0B",
"* c #00430C",
"= c #004F0C",
"- c #01540E",
"; c #00660F",
/* pixels */
"  .oO$o$%% .o#o O.#o++$X$#OoO$%*%#     X++$o#O.O .#%..o.@X  .oO.",
"    ++$%@X  O$$O$.o.++$#+#o O#+-%#X.   .o..oOO.O O##O%$oX+oOXO. ",
"    XXXX%Xo.OOOO+o.X.+OO+%o.X+%*$$.... .Oo+.o+XXoo.o#$+o$XXOOOo ",
"o   .+X@$X..#Oo#O.oooO..O$oO++%+%$++X. .oX.oO+#ooo .+*%+%O.oOO. ",
"%OoXo+XXOoO oOoooO+oo#oo##.++$&+$X+O$XXX$$.oo#%OooXOO&%XOo..##+O",
"$%OOOO ..OooO##o++o.OOo#$OO#O+++XXO+Xo.oX+XX###%#OO.o$$+.OOXo$$o",
"o#O+o+...+#Ooooo##oOOO+++XXXX@+XX+## .XXoX+O$$$$#oooo+@+XXX+$+OO",
"O$XX+&XXX+o   oO#O##OO+XO++O+X.o+X$O...XoOOO#$##$oO$oX@+%#OX.O+O",
"#O$%$%#O+X ..o#+#oOOoOX.+++XOO.o$.@. ..O#OOO#%#OOoOOO$& $+ooOoO+",
"$&*$#&$$ X  .O+#oO##XOooO%XX++%%+$+o  ##O+OX#$O#OO.oX+O $%O#+#O&",
"o#*OOOooO#..##+OOO$@XOXXX+XXX%;-X+XXo.$$XOXOO%%OO$%#O# .$&%%o##O",
"oO%$#Oo $. o#$$#O#$@++XX++X..$++%+XXOO@%+X+X#*$$O###O  .O#%&#oo.",
"ooooOOo XX. +%+O$%$%+O#OO+O.OX$%X@$X..#*++OX$$$####O  ..O$#ooo$O",
"ooooOOoooX..+OO#o+$#O+#O%%O. .o#. +X+%&*%+++o$###o#o.o. oo#oo oo",
" o oO##O#XoXoO#O$#O+O#oOO@++OO%OoO..@%$+@@O.XOOOO#$ooOO  .#ooOoo",
" ooo  OOo$$XXXOo$##@##++@#O+##$+O$XX@$X.%@O ...#oXOo.OOo..O#Ooo ",
"oOooO#O#o+XOOooo###OO#OoX+.X.++$@$@@X.O%+$XoOOoOo. .O$+..X+++$O.",
"OOooo.OOo$$+O.oOo##%#%oO.Xo..Oo+..XXX.$*$%$$O+OXOoooO%+Xo+$X$OO$",
"OOoooO#+O$##+O##oooOO#o..... o Oo$@. .@&&$$%+++XOOOXO+Oo+$XX$$%O",
"$$OO+O+XOO$+OOOoooOoOo. ooX.Xoo@$.X ..OO&$O$+#%+$oOOXoOOX+XX@%##",
"XXXoOOXOo.O#OoOoOXXX..ooX o X  X.o$$O..X$Xo+Xo+#+$Oo..OOXX@++%*%",
"XooooO+XoXX$OOOO$OoX.o%+. $X#Xo.. $$.+O.+@oooXX+%%.... #@X+X++$X",
"oo.OoO$$XX+OOOO#Oooo..+.XX ...ooooo+X ...Oo.+X$O%$X+Xoo+%+XX+oX.",
" OO+X#%OO++OooO#OoooO$O#XX+X+. #+#O +... o#$$$+X+XOXO$XX+.oXXoX.",
" ooooO#OOO#+OoOO#OOOO#$Oo#$#OOO###$oOo  Xo$#*$$XXoX++$+Xo....O. ",
" oooo$##oOOoO$+OoooOOoOoo XX$&$*$.$&$o ooO#o+#X+.X+ooXOX.o O....",
"ooO$O$++XXOX##%#    . -Oo XX&#%$o$%$+#oOoOo O$XX@X+X...Xo..X++.o",
"Oo##O#O+X+oo#O#$.   O#oo..+$$$##% #o #Oo O  X+oXX.X+o..XO..X#+XX",
"OO. ooX+$+oO.oO+O .O$Oo.X.XXOO  oo $  OO %o.O###XoOXoo..o O ooX+",
"+oo...o++o.o.oo#.  ..oo$@.XOo#   Oo#o oOO#O+OO#o.+o#%+ oOooooXXX",
"$X.    X$$XX.O.O  .#oo#$+X$X.#o    O#o  o##OOo##.$$$$#OO.oO.OX$$",
"X..    X$+  X. #  #%Oo.O%$ OoOOO  oOoO  ##Ooo#O# .#X++$oOOOO$+$+",
"&O     O+O$o#O.O o$$o...+O .oooo   oO$o$%%  oOooOo#o++#X$#O o$%*",
"$+X. . oo.oOOO.O ###X%@XX+.oOOo     ##$%@O. O%$O$oo.##$###O O#+-",
"$@.. . .OoO.o+Oo.o oO@+o$+OXOOo     .OOO$#.oOOOO+..X #OO#%O O#%*",
"%%+XX. .XX.oO+#oo .o#*%+%O.OOOo o   X+X#$O .##oOO.oo.OooO$XO++%#",
"$X++$OOX#$.oo+%Ooo#OX&&XOo..###O%+.X.+XXXoO .ooooOO.oOoo#+.+++&+",
"XXX++o..X+OX+##%#OOo.$$X.OOo.$#o$%OXOO ..+o.O$OO++ooO#o#$OX+X$++",
"X+X+ oXXoOXX$%$$+Ooo.+$++XX+$$O#oOX+.@...+##.O.o+#OOOOO##XXXX@X+",
"$O$O o.XXXO+#$##$oO#oX$+%#OX OOOO$XX+&XXX#o    X++##OO#OO++X$..o",
"+o@.. .O#XXX+%O#oooOO$&.##Ooooo##O$%$%#O#o  .o#O+oOXoXX.+#+OX+. ",
"+$@. .$+XXXO#$X#O#.oO+O.$%O#+$O&%&*$#*$$oo  .###oO$+XXo.O$XX+X%%",
"X+XXo $@XO+OO%%OO$%##O  $&&%.$#OoO&#OoooO+oo###OOo$$XXOX++oXX%;-",
"%+.XOO#%+X#X#&%$O+##o  .O#%%#oo oO%$#oo $  O+@$$O#$@++OO++XX.$+#",
"X@@X.o#*+OXO$#$#$##Oo . o$#ooo$oooooOOooOo..X%+O$$%%O+#OX+O.XX@&",
" .$.#%&*%+++O$#$#o#.o....o+oooooooooOOoooO..++O+O+#+#+#O%%Oo. .+",
"oOoO#%@+@$XoOoOOO#$. OO ..#oo#O    oOOOO$Oo.XX+O$#O+O+oOO$##OO%o",
"++XO@@OO%+X...o#oOOo.+OoooO#oo . ooOooOOo@@OX.Oo##$#++++$+OO#$$#",
"#@@$X..%$$XXOO.O....O$+..X++#$Oo.+o.+#O#o#O#Oooo##$OO+OXXX.o.+$+",
"O.XXX.+*@%$$X#oOOoooO%+.X+@X$OO$+Xoo.oOOo$$#O o#o##$O%.O.XX. OO+",
"o++X .%&%%$@+++OoOOXO+Oo+$+.@@%OOOOooo+#O$###O##oOoOo$o..X...o o",
"$.O X.oO&@O$#@%+$oOXO.OOX++X@%++#$OO#X+XOO$OOOoooOOoOo. o.X.XoO@",
"oo$$OooX@XoOX.+#+$Oo..OOXX+++%*%OXXoO+OX..O+OOOoOOOOo oOX o o  +",
"..$$oOO @+O..XO+&%o....O%X+X++@XOooooo#OoXO$OOOO#OoOoo%+..$X+X..",
"ooo+X.oo.OOoO+$+@$X+Ooo+$+OX+oX.oo.OXo$#XO#+OoO#Ooooo.#.o.  ....",
"++O +. . .$$@$+X+XOO++O++.oXX.X. OO+O#%OX+O+ooo##oooO$o#XX+X+..+",
"###.+.  Oo$#*$$OX.X+@++Oo. .oX.  ooo.O#OXX#+O.OO#OOO#O$O.@@@XXX$",
"$ $&#o...OOo##OO.X@.oXXX o.X.o. .ooO.###XXOoO+##o.oOOoOoo X+@&$&",
"O$%%+#oOXX. X@XX@X+O...XO.oX+X.Xo.o$O#O$XXXX##&#.    o-#. .X*O%@",
"% OO $Oo X. X+XOX.X#...XXo.X$+XXOo###O##XXoX+X##.   o#oo..X%$$#$",
"ooo#  OO %ooX+#+OoOOooooo X o.X+XX .ooo+$+ooooO#o  #$OooX.OOOO  ",
" oo#o ooOOX#OO#Oo#o#%+ oooOoooXX+Xo ooo$#O.o.oo#o    o #@oOO #  ",
"   o#.  o+OOOO##.#$$$+OOooO +O$$$X.    O$#OX.XoO oo#oo#$#O#OO#o ",
"oooO.O .#$OoOOOO..+X++$oOoOO$+$+X.     O$+  Oo O  $$#o.+%$oOoOOo"
};
