/* XPM */
static char *no[] = {
/* columns rows colors chars-per-pixel */
"64 64 117 2 ",
"   c #03220A",
".  c #042A0E",
"X  c #0C2712",
"o  c #042D10",
"O  c #0D2A14",
"+  c #102B16",
"@  c #132E1A",
"#  c #182F1E",
"$  c #043212",
"%  c #0A3416",
"&  c #033B14",
"*  c #093B17",
"=  c #0F3519",
"-  c #0D3B1B",
";  c #14331C",
":  c #18331F",
">  c #123B1E",
",  c #173720",
"<  c #193621",
"1  c #163D21",
"2  c #1A3C23",
"3  c #1D3F28",
"4  c #213E29",
"5  c #064419",
"6  c #0C431D",
"7  c #044C1B",
"8  c #0A4A1E",
"9  c #10431F",
"0  c #04531D",
"q  c #08511F",
"w  c #025A1E",
"e  c #01611F",
"r  c #0F4620",
"t  c #0E4C22",
"y  c #144423",
"u  c #1A4326",
"i  c #134C25",
"p  c #184A27",
"a  c #1C4528",
"s  c #174E28",
"d  c #1A4C2A",
"f  c #075620",
"g  c #0C5423",
"h  c #065D22",
"j  c #0C5C25",
"k  c #0F5E28",
"l  c #125326",
"z  c #105927",
"x  c #155429",
"c  c #1B532C",
"v  c #135C2A",
"b  c #195B2E",
"n  c #1E5730",
"m  c #1D5C31",
"M  c #21462B",
"N  c #214B2D",
"B  c #20522F",
"V  c #225532",
"C  c #215A33",
"Z  c #046423",
"A  c #0A6226",
"S  c #046C25",
"D  c #096927",
"F  c #0D6429",
"G  c #076F28",
"H  c #0C6C2A",
"J  c #13642C",
"K  c #18612F",
"L  c #126A2E",
"P  c #037226",
"I  c #017926",
"U  c #067529",
"Y  c #0B732C",
"T  c #057B2A",
"R  c #0A7B2E",
"E  c #11712F",
"W  c #176530",
"Q  c #1A6431",
"!  c #166C31",
"~  c #1A6B34",
"^  c #0E7D31",
"/  c #137432",
"(  c #1B7436",
")  c #127B33",
"_  c #1F7138",
"`  c #167F38",
"'  c #197D39",
"]  c #226035",
"[  c #22753C",
"{  c #227E3F",
"}  c #03822C",
"|  c #08822F",
" . c #028B2E",
".. c #01922F",
"X. c #078731",
"o. c #0C8231",
"O. c #058C31",
"+. c #0A8B33",
"@. c #128235",
"#. c #108D37",
"$. c #168238",
"%. c #1B823C",
"&. c #138C39",
"*. c #188C3C",
"=. c #059333",
"-. c #0A9336",
";. c #039B34",
":. c #0D9439",
">. c #0D9B3B",
",. c #03A336",
"<. c #01AB37",
"1. c #06A73A",
"2. c #0AA23B",
"3. c #04AA39",
"4. c #02BA3D",
"5. c #07BD40",
"6. c #03CC43",
/* pixels */
"O @ 2 c n ) d T ..=.+ ; u Q d O b y R i P P } j R Y V < x } ..<.>.] ;       O Z D E ` a ~ x 2 b   , ( &.a i q 6 I J   2 2 a x ; ",
"      @ Y R } .. .k + + b +.@.b | y i 0 U T  .H Y / d < c T T 4.X.U 7 & . o . l g 1 > x Q F i k O m ^ W c O.} g Z Y u x h K u O ",
"        l F z A  .L 2 d C C J b D y y h - Y x b Y -.x $ v Y  .<.| I 5 % * & . y k j H 2 s G j l 2 x , y W O.U y | H z F L c x + ",
"d @ ; u g P Z I } z > 2 ~ J u J J u j g 2 b u a n T z g D R  ./ ..+.Y J x > ; u g k y y v G U i u 2 y 2 Y ,.-.!  .m 3 z A b y : ",
"+.Q a J f G e Z h g c : 4 s u x u b J u a W d u / L u D Y T ,.Z I Z Y F R v D Z R ^ 1 t c P +.z s u H x D ;.;.D v d 2 2 E Y P B ",
"` :.x F c v & 7 8 F i 2 b ) J z U U d 3 b L u L R J z U k o.S U A e F G H i > y D H k A Y E _ #.^ v v u i X.} S i z F j i T ^ c ",
"d J Z S 8 I 7 0 7 Y H ~ : c 2 l R Y x c L v L F H j h S Z  .Z P e I D Y : a z D y F A A T O.@.^ U i g d s S } S S j j T o.R h L ",
"B $.Z S I ;.e S Z T z . $ . : j H H H L v x E z j U U x U f > g I v @.v ; 2 > H g g S F U o.! ( ^ s D U i S } G =./ F f y g D L ",
"Y C  ...} O.D G P g ; = - d / G T d z k x z z 8 D Y H z J D ; 2 I u } ; % ; y K H v Z j U -.L J d p x J v ) >.; T T d a z a j P ",
"@.,.,.` ^ ,.^ ' 1 l @ @ > L D F u c R Y Z z t i c +.D h P P -.=.P } T p % ; ) L F D l F H ) k L x ! y u j R c = o. .D H D o.n >.",
"N ~ 2.! v v p d v D y 8 D ~ U ! x c o.T Z F k w Z D 0 j w =.6.4.Z P Z j i : o.R S A F J J =.+.K b ) :.L W J . > ' ;.:.:.3 ` _ c ",
"< V *.%.E x 2 = ^ y ; j T | o.Y J ! o.| U D g Z P U Z w 0 } I U  .S g e F d / +.G j D k Y ,. .o.J Y R U d ; . ; c / :.=.! d d O ",
"+ 2 N d n x ; ; c g 8 5 S O.L k o.O. .=.H D L v D P v y Z D } =.F I } e 9 l R <.P F F z o.) ) Y ^ R E b < o & > c | Y c a c { B ",
"2 p u a J m a 3 d A f 5 G H z L g A Y E K U L x +.O.b y ; ; 2 ~ 2 3 Y q S =.,.1.+.U S H g | / / J x U y 2 i - $ y i G y 3 @ ; u ",
"O O ; p c H ~ N ) f l 0 v x ~ Q ) ^ J U v I i v J ^ H R c K +.N 4 k g x U =.} S T R k w z x m b z ~ ^ y u z v - ; 6 T g V Q C X ",
"  d z L ; 1 z J d ^ T A Z g j t R ~ E U Y Y J P R T z D W ^ } T H } h A T | z p =.T g 5 9 * d ! y z J i 2 F J y > 9 A P v d ; + ",
": L i t J Y L L a G S H k y d d L / ) J c Y l j Z G 6 d 2 R I U T } } } Z 5 t =.^ ^ F g x x c v a ; ; 2 l +.T t - j T I Y $.x a ",
"F J c u : 6 v z c ) T L v 2 2 H a ! K &.L O.1 F t g g i ; x c J j y A h h r ^ ,.U +.| } D ^ c l b a t i F #.H f t P | h T V Q @.",
"k v x d y l Y Y k T T R / W Y L d c 1 W x T x & y 0 t 2 > f O c d R T 7 = 8 O.,.;.X.T +.U U S F x K z J L L v f P | Z 0 } | =.V ",
") R c J T k F w k b / J b c V y y d F i v i ; ; t w j t h t x | @.1 x ; f 7 l m ;.| n o.U U O.D ^ M l F k u v v F P S Z T ..E U ",
"x A D d v J F z i > J / c c c u v k Z k 2 y y l l - u O j , @ D a a ) o.Z f i S } D d G j g P E Y o.z i y y b z H A I S I  .1...",
"k l d y y d Y J g j J o.z F c L / b i D u i -.H > , X.h U l f 8 8 # ' o.y J n @ T P s y t k D H ;.-.u y 7 r : L O.A D Z I P } w ",
"i p 2 l z i ) T Z w P F J d b Q C 3 N 2 y > W ; l g   , y 5 0 t 8 a i P k , i y ; F s u D F o.H  .} h D F i i H o.T F h P g A 0 ",
"; V b U J E +.J k P L H y * d E J d u u v +.v I S Z Y F P f - S P T v : S g = u o 2 ) ^ o.T U j Z G z L F T k F D > r H h f j M ",
"@ M > y 2 L / v v j ~ H z y J Q ! b b z L Y | v 9 P } T Z Z Z / / U T 2 U y 6 ; k a $.! 1.+./ l h f S D U | L v i y > y y D q + ",
"; M 2 i > ' L E z k v i J T L Q a > s J J u B a a * Z G } ,.o.2.$.@ ) ;.T u y 6 g F ! p H H j S 0 j P h i l J i , i , l % y y > ",
"> u c ` Q / J R Z A Z F U Y -.( = X   . = 2 4.H l 5 0 e ,.Q -.o.N ( -.+.L U y P f h y > A } A Z T A G j 1 1 r J z > * v W A > j ",
"A p / / v J J U Z Z w f S F / ( u     + x ] c d - 7 e ..^ @.! ^ &.+ L c : T c u @ j > ; f T f D Z 0 j H i & & g x 6 6 v U T D h ",
"P h > 2 u p l G R T s d 8 g z Y c   = E ) c 2 2 Z 7 A F n v ; X u 2 < ` X @ x b O =.t r v D Y T F i v x p i & y s + d 1 i f S S ",
"T z d > y = i T ) i > i 9 i t Y 4     ; @ M < R O.i Z l < ~ ; X O n < H a O 2 c m H A D Q m L z u H i ) O.H . y s p b u l l Z j ",
"T h 5 o .     J / R J J u H u J O + a E d u L +.Q D U Z i Y 2 X   X + F / 2 O 2 u T D F n m ! ! 2 ) ) T } U W b y l v , W l } } ",
"F ; +         J } P + X b u : ~   + [ #.! d > S =.o.# m d Q c n ; 2 c v 2 H   ; L T c < v ] C Q < , ) A P T ) l F c b n $./ T U ",
">.C ;       O F D E ` a ( l 1 b   : ( *.a i q 6 I v   2 2 d x ; O ; 3 d b ) d T  .=.O ; u W s O b y R i D I T j R Y d 2 d } =.<.",
"O.Y 7 & o o o l g 1 1 x Q F s l O Q E L x ..} l Z Y u x A b 2 +       @ Y R } .. .v O + b +.@.b | u g 0 U T  .H / / c : x T } 4.",
"X.I 5 % % & X y k g H 2 s D j l 2 x ; y J } P i } H z F L c x X         l F j F  .L 3 d C C J b D y > h > Y x K Y -.l $ v Y  .<.",
" .O.Y F l 1 = u g k y y J S T i u 2 u u R 2.:.E O.m 3 l D b y < d @ @ a z P Z P T v > 2 ~ ~ u J J u j z 2 b y 3 n | g z D R  .E ",
"} h T F ^ b D Z T ^ 1 t x D +.z s u D v F ;.=.A J d 2 3 ! U P n +.Q a F g G e Z h g c ; 3 d u x y b F u u W d u / J y H Y T ,.Z ",
"h Z D D D t 1 r D H k D Y Y _ #.) v v u l } } P i g J j t ^ ^ c $.:.x F d v & 7 8 F i 2 m / J g G U M 3 K L d L | J z Y z R G T ",
"Z I F Y , u j D y F A k } O.@.^ U l z p i S } S S k h T o.T h ! d J Z S q I 7 0 7 Y H W , c a l Y R s b L v L F D h w G Z } S P ",
"I J @.x ; , 2 H s g S F U o.! / R i F Y i S } G =.E F g y g D F B $.e S I ,.e Z S U v   & . < f H H E H b i E z k U P c T w > t ",
"T u | ; o ; y K D v Z j U +.L J c i l L x ) >.; T T d a z a j P R b | ..} ..D G G g ; ; * d ! S T d z k x v z q D U Y l F D > < ",
"P T T i % ; ) ! J D g J H o.F W x ~ u 2 j T n > @.=.D H D R n >.@.1.,.' E 1.o.' 1 l O ; > ! U L a c R Y Z g i t c +.G j P S -.O.",
"Z P Z h i : ^ R A A F J J =.O.J v ) :.H J J   > ' ;.-.:.u $.[ c N ] 1.L J x u c v D y 8 D ~ U ! x c o.T S F k 0 A A w j h ..6.5.",
" .P g w F d / =.U h G z / ,.O.o.J L R Y d ; o > d / -.-.! d a + : V *.%.L v u + ^ y ; j I R o.Y J ! ^ } G D g S P U Z f 0 } I U ",
"k I } Z 1 l R <.P J H F o./ ) / R R / v < o & ; c | Y x a c { c + u N d b c ; ; c j 8 * S =.J J | O. .=.H G E v S S z y A A } ;.",
"2 a U f G =.,.1.o.Y S A g | Y ) J x Y 1 u i = & y i S p 3 @ ; 3 2 s u a K v a 3 d A f 5 S D v L g A Y Y K D L d +.O.Q y ; = 2 ! ",
"4 k t i U -.T S } T k w z x m b v ( ^ i 2 z x - ; 6 P g B ~ C X O X ; p c Y ~ d / f i f l l ~ W ) ^ J H k I i b J ^ H R x Q +.N ",
"Y T Z D T | z i O.T j 5 y * p ! y g J i 2 H J y 9 9 A P b d ; +   s x L ; > x J d o.T D S l k t R ~ E T Y Y L P T U z H W ^ } U ",
"Y | } } Z 6 t =.R ) k g v c c v a , = 2 x +.R 8 - h T T Y $.c a < H t i J R J E u S G D k y a c J / @.v c H z w Z G y s > ^ T T ",
"h y Z w w t ^ ,.T +.} | D Y x x b a t i k #.H f l G } h T c Q @.L J x u < - v z c ) | L v 2 2 L a W J &.L +.y J 8 g g p ; x s J ",
"d T I q ; 6  .,.;. .T O.Y T G F x b j F J Y v f P T Z q } | -.n z v x d u l Y Y v | U ^ / K Y L s c u J z T x & 9 w i u ; g O c ",
") u c > w 7 l m -.} b o.P Y  .D ) M l J j u v v A I S Z }  .E T / o.c v T k F w z v ^ J K c c i u d J i x i ; ; i w w 8 e 8 x | ",
"a a ) o.Z q i Z } D d G Z g D Y U o.l i t y c z L A U S I  .3...l A S d v J F z i - W / c c c u v k Z z u 2 y l x - a O k ; ; H ",
"8 ; ' o.i J b ; U U s y i k D H ;.=.a y 7 y 2 L } A U e I P } h F i a i u i Y J g j F o.v F c J / b s D y l -.H ; , } A Y z w 6 ",
"t a i G z > i u > F c y A F o.L  .T j D D i i H +.U F j S g A f i d 2 x z i ) U A h P F J d b K c 4 M 2 9 > ~ > g j   ; y 5 7 t ",
"P T z : G q ; u . 2 / o.o.R P h S G l L J U v D D 1 t F w f j a # n b R F / +.F j P L H > * c E L d a a v +.z P Z h Y J P h - S ",
"/ U T 1 P y 6 , v d $.! 1.+./ b w h Z D Y R L v t y > y y D 7 + @ a > y 2 L E v v z ~ H z i J b / b c x L Y X.z y T } T Z Z S / ",
"$.# ) ;.T y 6 8 f F W s Y H A S 0 h P h i z J i , i < g = u y > ; M 2 i > ' L E j F v i J T L Q a > i L W 2 V a u * Z G } ,.R 2.",
"N ( -.O.W Y y S f h u ; A } A Z T A G F y > r J l 1 - v W D r f 2 u c ` K / J T h A h F U Y -.( ;     o O 2 4.U l * 0 e ,.Q =.o.",
"&.O W c < T c a # j - + w U f A Z q h L y & & g x 5 r v U T A Z A i / / b J L Y Z S 0 f S k / ' u     O c ~ c a - 7 Z ..^ @.! ^ ",
"u u < ) X @ c b O =.t r j D Y T J i v x i i & y d + d 1 i q Z P G Z > 2 p u z G T T p c 8 g x Y c   ; E ) d 2 2 S 7 k F n v ; X ",
"O n 2 H a O 1 c m H j Y m Q W z u L i ) O.D . y i d b u d z Z h T g d > y * i R ) i 2 t 1 g i Y 4     ; @ a < ^ O.t Z z 2 W : X ",
"  O + J ) 2 + , u T A F n m H ! 2 ) ^ T } U Q b y l z , J z | } T h 5 o X     J ) R v J p F 2 L O ; a Y c u ! o.m D U A s Y 2 X ",
"; 2 c x 2 H   ; H T c ; Q C C ~ < < ) A U T ) l F c b n $./ } P v ; O         F } P + X b u : !   + [ &.! i 1 S =.o.; m d Q c c "
};
