/* XPM */
static char *so[] = {
/* columns rows colors chars-per-pixel */
"64 64 52 1 ",
"  c #011E08",
". c #05230C",
"X c #08230F",
"o c #032B0E",
"O c #01330E",
"+ c #003A0F",
"@ c #072710",
"# c #0A2511",
"$ c #062C11",
"% c #0B2C14",
"& c #102C18",
"* c #053412",
"= c #0A3315",
"- c #053C13",
"; c #093A16",
": c #0E3418",
"> c #0C3B19",
", c #103319",
"< c #113B1C",
"1 c #044414",
"2 c #084117",
"3 c #034C15",
"4 c #074618",
"5 c #0A4319",
"6 c #064C18",
"7 c #0A4B1B",
"8 c #11421E",
"9 c #025316",
"0 c #005A16",
"q c #055419",
"w c #09531C",
"e c #035B19",
"r c #095A1E",
"t c #006017",
"y c #02631A",
"u c #09621F",
"i c #036A1C",
"p c #01741C",
"a c #017A1D",
"s c #0F4E20",
"d c #0C5720",
"f c #0D5B21",
"g c #115322",
"h c #115A24",
"j c #0A6221",
"k c #076B20",
"l c #067320",
"z c #037D20",
"x c #01821E",
"c c #00911F",
"v c #039723",
"b c #01AB25",
/* pixels */
".#%:<q:9ti.X%5, 5%9$310*w3<%=9txp8X.  .+14f&7>@> #df%%O$3; %&:;X",
"   #6q9t0;XX8yr<q%=o39044w:X>99cy6+o.o.**$$;5-=;.5w5:i0O-7%;;;%X",
"    ;--+05%,<55>1%$;X3=56y=.;3tae0oXoo.$;*1%:3-=%>#%5e3$04;25>;X",
":##%*3+30;$%75%55&O*%5%&>0;;1wt3ye35;%X=*;%%>13=%%%%3ai5t<%*1>%X",
"y5:-*1+1;O<X&::=$>-=%5==w5%339p10-62q;1+9q$*;4y;;%1>-pi--:%%733:",
"fj*1>>.oo2=%<q5*33,%55,4q--3=919++-31=%%14>1477jw>>%=903%;;;%9q:",
":5-1O9ooO345%:%*3w=>5>553;;1+011+313X:-2%2--9trq3=*:=1911;-3e3;1",
":r-13i+113*.o.#;5364>*6;-33=9$$$3>r;%X%1;*1-3e779=-9=191i4-*%;11",
"3<ey0y111O#X$:713:;;*;:O133*-1%%9$eXXX:54;+-3y55::;2>wpX99:%;:*3",
"raad6aqd$;XX$535%>941;*O<y5+31it199=o#q521*54w-5;5%%;9,$qt151q,p",
",8a7>;==;1$o1735>>q91--+11O;+tbc11++*#r91-1;1ie5;wu752.orpii%rs:",
"%<uf4>&ow%X;3qq927qq11;1331Oo033t3$12:7u1-426aer2693:X.%:7ui7::X",
"X%,:<=$X>;o.1t42qy0y116;13;$-2qi+991X*9x311;e7w6q37:# oo:q3;&:h<",
"%=:&55&&:2Oo1124;1w3537:y05%X$%7%%9$1iaae311*e775;3%%=$.==1%:X%%",
"XXX=>47:6O=O;=55q624-3=;5q29>5y:&;O=3iq399-*;;>526e%%;;$Xo3*<7<.",
" :;1X%;5,qq+1;2*w769342393;15qq359+299;*i9*o%o%7=;5=%52%o%-3>:XX",
"X1$=5957&111-&=:47q>:3;;+1%=%w933999+o*i6q-;>*>;%%o%;e3o$-934r;:",
"55==X$>;<q93>%&1:55u4yX1O*;=X;:1-%1+-%6x9i9q17;;::;%1u4**39-9:5r",
"->=:%>33-9397537=:%5=9:o$O=&X*X>:99O.o0pie9y431;;>;;54;*191O0qu:",
"wq;>9-1+;<w7>;,=%:1=>:oX=O+%+*=qw%:#O$;5pq:e33i1q:;;-%>5-31+9t69",
"*-1:>72;=o>6::;:5-+;%%=*;$& -XX1:%we-O=101%3+*436e;;%%>;513130xt",
";==%%=w-;;-q>1:46>=1%=i1$X0+3>O$$#wr%1>X93:%=;11ii%$o$#40+3+310+",
"=:%;=;w31O312<>8<&,%%%7X*;.X%.o$*%=1;X=%X;:%1;e509-41=%4e9-;1*-O",
"X<>324y1-141$o;44:&:-y=91+623Oo133;#1*X=.%qqe03O11*513-11#*1+*;&",
"X,%=%56;;-74-=257>>>44e;%39311+7433%4$o#-:r7zeq;O+134q5;*%o%%1OX",
"X,%=%d74---:2328:#=15=:,=.119pqar%wp9%$$*15=44-1O+1O=;1:#;#;o%%#",
"%%>w5759+1--3wi7X ..X%c4O.O+a5iq,wui46%1**%#-9--9-3;o%O2;%o;5-%*",
";=w75523-1O*1;7w%  .:7<&.o1tqr77u.5:#6;%#-@.O9*1-O-4=oo;:*$;691+",
"1+$%=%*3q3==$*;6>.X6w:&%1o-1<>X.%%%w.#:>Xi*$-4332=;;:=o$:@;%*o-1",
"3;:%%$=9w*%$$=$w#..#X=#90*+=#5#.X<%1%.%:>1;15>4;%4=qt1.*=%>%;;--",
"9+O.. .;7q-2%1%5..%6:%7t5131=6#.  X1q%X%%q15<>75%wq3035;%;>%5;99",
"-$X    1q3X.>&#5..gu7:#1yq#8:5<>#&::%4 X49:%>8<8&%q-33w*;:>,rq93",
"i8X.  @214r&7;%> $su&$$$3; %%,:#X#%:>w:9yiXX=5:X>%9$119-q6<X:9yx",
"e9+o...**#%;5-=;X8w5>y0O17%;-2%.   #6q9t0-XX5eq>q=$O3q0376;X;99c",
"e0OXoo.$;;1%:1;*$=%%503%94;-5>;.    ;-;-t5&,<85>1%%+X6=5wi=.;wtx",
"te35;o@%*-%=;13=:%%%6ai5t5%=1>%%:##%*3+39;o&78%55:+=#5%%>q;;13t7",
"9-92q>1-9q%*>4t;=%1;-pi-;:%%634:u8,-*3-1+*<X%=:=%>-:#5:&74%339p1",
"-+-41=$%11;1367jw;>%O993%;;*%qq:wi*1:; o$1=X>w5=33:%>7:7q-;3=913",
"+313#%;1%1--9twq3**:=1911;-9e3+5:5+1O9oOo314%:&*37=<52513;-1+911",
"3;u;##%4**154e7wq=23*101i72*%*11<r+13i+113;.o.#+1346>=6--33;3*oO",
"9%0X.%%53;+-3y52:==2>wp#39,%*,;13<0t0e311*X$$=713:;-=>;*133;-1%%",
"103=oXq722*24w-5>5=%+9<%wy1159<praar7aqd%*XX$535%>q31;*$<y1+11it",
"-1++:#r91;222ie2>wi552 %rpii&ws>,7a52;=:>1%$1735;>qq1+-+11+;+ybc",
"t3O1-:7y3+1-6atr2366:X.$<7ui7::X#<jh4;&Xq$X;9qqw>7qq11;1111OO993",
"-301%=9x3>21q6w7q96>XXoo:q9*%<h<#&,:>:$X>O$o1t42eyet134;13-%-29i",
"%#3O1ipay311*9w75=6$%=$.%=1%=XX%#::%;5:%:2*o11;4*1w6>37;yy>%Xo#7",
"&;==3iq3q9-O>->527q%#;;$$$3O<7<XX.X:>47:wO=O;*85w9;3-3*;5w29<5u:",
"49+199;=y9;o$$:7$>2=&12%%$-1>,%X :;2X%>5:qq+1*2*w5w3945193;15q99",
"9909+o*i6w;*;>:;&%o#>e3o%-994r>%#1$=4327:114;:::56w5>4;++1$:%693",
";%-O+%qa9u0q16:;>%*:;u1**19+3<5r52;=#$>;:qq4;##4=55u5y%2$;*=$;:2",
"%99OXotppe9t333-;>;-24;O10-O09i<>2=::=3329964537=>%5*9;o$O$%o;.<",
"r%>XOo;>p9:e36t1q,;2;=25-31-qt79wq:>313*;>645::=%:2%;:X#=O1$+$*9",
"&:we-O=101;11*4q3q;=%%>-1-313txt*21=>41;=$>6::>:>-+;%%=*:$%X;XX5",
"$Xwr%5>X31:%%-11ii%$o$%5e-1+33q+-=&===32*-2e>1>1q>=1%*i1$$q+3;Oo",
"*%=1-#==X1::11q500+41==5e31-1O+O$:%*;=q31*112:55<&,%%%5X**.X%oo$",
"33*#1*X%.%6weq3+11;513-14$%1+O;&X<;w;7y1;143%$:45:%,5e;91+6;3Oo1",
"43q%1$X#;:r7zyq:+*136q52$%$%%1OXX,%=%76;;;442%257>>;440;%303+1+6",
"f#wp9=o$O15=44-1O+1O=;5*%=%>$=%XX,%=%w74;--:;958=$=27%,:=.110awp",
":die46%3*;%#;0-+9-1;$$$2;$o-5-$*%&;r5w29-2--3wi7X ..X%v1=.O+p5ie",
"j.5,#9:% ;$XO3*1-O+7=oo;:O$;392+-=775553+1O+1-6w%. X:7<%Xo10wr5q",
"%%#wXX>>.i*$-4332=;-==o$=X<$=O+31+#%&=*3q9%:$*;4<.X3w<%&1o-;<>X.",
".<%4& %::1;15>5;&5$wy1.===>%=;+-9;=#$$=qq$%$$=$9% .XX%#9t%1*%5XX",
" .X2q%.%:315<>47%ww9038-%=;X5=999+O.. .-6w;2=2&5XX&3:%7e>191=6%X",
"%%:;%5 X49:#5885#%w+33w*-<><rw93-%X    203XX>%X5 Xdu7:%1teX<=5:>"
};
