/* XPM */
static char *we[] = {
/* columns rows colors chars-per-pixel */
"64 64 48 1 ",
"  c #011C07",
". c #041E0A",
"X c #0A1F0F",
"o c #05230C",
"O c #08230F",
"+ c #042B0D",
"@ c #02330E",
"# c #013B0F",
"$ c #072710",
"% c #0A2511",
"& c #072C10",
"* c #0A2B13",
"= c #063412",
"- c #0A3315",
"; c #053C12",
": c #093B16",
"> c #0E3518",
", c #0D3C19",
"< c #103D1C",
"1 c #00410F",
"2 c #044413",
"3 c #084317",
"4 c #044C14",
"5 c #0A4419",
"6 c #074C18",
"7 c #0A4B1A",
"8 c #10431C",
"9 c #025315",
"0 c #025A16",
"q c #065419",
"w c #09531B",
"e c #055B19",
"r c #095A1D",
"t c #006316",
"y c #006816",
"u c #036319",
"i c #08651E",
"p c #036C1A",
"a c #02741B",
"s c #027C1C",
"d c #0F5420",
"f c #0E5D21",
"g c #0A6620",
"h c #01841D",
"j c #01881C",
"k c #00971D",
"l c #039D21",
"z c #01B224",
/* pixels */
".%*-,q-9ty.O*5-X:O9&229#96,O-9yja8o   o#26r-7>O3 O7i*-+&9; O*--O",
"   O4qqyt=OO5ee:0*-+990667>O:99kt6#+ooo=@O*-33-=O867=u9@#6-=;,*O",
"    =;##t3**<53:3**#o9=,4p-o:6yje9@o++o$;=3&-2==&-O*3e4&02=33:-O",
">O%*=2#49;**75*53*#*$,**<0==16y5t062=&o&=;&&;19-****9sp5u<*=3:&O",
"u,-:=2#1#@>O%>*-&:;**5--w3*269s19#93q=229q&&:6p=>*3=2ap1;-*O644>",
"rp=2-: +O2-*,w3=49>*,5-593=6=014##222=$%22;3257iq;,*&004*=3=$99-",
">3;2@9+@+427$>*=96&,33322##11911#222O*;2*32;0teq2-=*&1011;#9e9=3",
">r#14a###9@ooo%=2262,-6;164-9@*@4;u,O*%2=&1;407w0-;9=202p73=$=13",
"4,ey0t324@Oo+-722-:#-;==246=32O*9*0ooO*34=#;4u23--=,:wao94-*=*=2",
"ussrqser%=OOo722*:q61=@&,u2#12py109=+O9822=33e;3,5**=9,+ey2320<s",
">5s5:---:2&O3743:-e91#3@22@##yzk;1;#**091;2,3ye3;wp335oorapp*q7<",
"%<if4:*Oe%O;400q36q032=4421@+992y4@#;>wu2#2;6sue3694>ooo>7pp5>>O",
"X*>*,-O%:@+o1y32euuu226:14=*130p#991%=9h433307q6996>O.++-04-*>f<",
"%-*>3,**-2@o22:3#246526=uy3*OOO7%%4@4yshu212&06w3-4&*-+o*-1-*OO*",
"O.%*-67-7==@:-73e63234@,3q29:3u>*;=*6a9209;@=;833we**==OO$4=>88X",
" -:3%%:3>09#2=;=65949222q4=25q9989#299#-y9=+&+*5&=3&*33-+&#4;-oO",
"%3&=3927*322;**>36q:>6=;11*-*6949009#+&y9e=@,==>**o*=u4+&;992e>-",
"32>*%O:::q94=**3*63i2yO3&#=-$=-3#$#@#+qh9ue02q>=,*=*;i2@@29#9>5e",
"::--*=44:04q7566>>&5=9=+&@&*$=O-*69@O+tsa09t4422=<=336;&291@9qp<",
"60-5922==:w4,:>&*-2&=-$O&@#+#&=0e*-O@+-<a0,044y2r-=3=*33242#9y64",
"-;2-:52;*O27>-:-,;1=**-&:$*X=OO1--we#+*1e2=21&466q;-&&,;32414tjt",
";=**&-4:@;;e;2>3w,-3*-a2OO0#4:@$$Ore*33O42--&=22ya**+&O3e12#410#",
"--*-=-q4;#43:>,5,*>**$5$=# O$++@&*&2;*&&O3-&13e3t9;22&-2e92#1=#@",
"%,,427u2#423++-73-**;u=9##434@$244:O1=o&o*6qe99#11=334;22o&3#@=*",
"X-**%64=::72;*2,5,::340:%499#1;5649*2O+O;>r6hew-@@164033-&$&&3@O",
"X*%-*r77=;;-3428-*&35*>--o110s0seOqa9-+$@35-62;1+#4@&=3=O-O>$&&o",
"**:r5729#;;;49p7$ ooo*k4@o@#s3pe>wpe39*1@=&o#9;#9#2;&&&3=$+;6;$@",
";*w75:34;2@@2;7w*   ,8>*o+#ter74iO5,O9>*O#OO@9@2#@#6&++=:@&;692#",
"2#o*-*:499*-&=-4>oO6q>**#+;2>,O.**%eXO=,ou@$;3693*;,=-++-O,O&@;2",
"9=-O=O*06@*&o==4*  OO*Xqu@#=%5OoX,*2*o*>33#3833=*3=6u2o&-->*==##",
"9#@o  o;w9;2*2*5oo*6>*6u,241*6Oo XO;6*oO*q13>325*wq9045;$-=*3;0q",
";OO    ;02O.,*%5 odi7-O1yqO8-5>,O$<=*3 O29>O,888O*q#29w-#-,,r694",
"a5o   X236r-7>*3 Owi*&@$4; **--OXo*>>q>4tyOO*3>o>$9-219;q4>*-0tj",
"e6#+ooo=@O$-5;*=o8w3>y9=16*=#,*O   O999yt=OO,ue,0*@+49t24w-O>99k",
"u9@o++o&=#3*-2==$>O*3t2&e3>25>=O    =#=2t3*><<3:4*o;O4-84p=o=6tj",
"y061=+O*=;&*;49=-$**4sa3u3*=2=*%>oO*=2#49:O*73*33*@=*,**<q;=29t2",
"9#43e>2#6e*&:2y>-*2=;ap2;-*%642>u8-3#211#&,O*:--*>;-*5-*w3*249s1",
"##222*$&1233427i6,,--001*=3=+q0-rp=1>>o++1-O,6,=44-*,5-39;;6=024",
"1122O*;1&3##9teq2-=-=1012=#9e9@6*5#2+9+++443*-*=49->33362##11011",
"9,u,O%*3==134e779-14&104p6;=$=23,r111a#114=oooO#2443:=6=164-9@*&",
"9$0OoO*32;#;4u63--=3,qaO94-*=*=26,ey0t224=Oo&-524-:#-3=@346=31&*",
"194-+Oq632=33e#3,5**#9,*eu222q>aussw6hqrO=OOO643*,661==&,u3#12yu",
"11##=Oq91=;23yu,;rp353 Orapp*e7<>7s53=*-,1%&1743=>e91;3#11@;#yzl",
"y4@1:>wu4;2;6ste3264-oo$>wip7>>O%<if6>**e*O#40e636q022=1241@+946",
"=991%=4j622,qwq6996,O.+o-09=*>f<X*>*<-OO:=$o1y53et0u242;12=&120y",
"**4#4ysju212=0663=4&*-&o&-2**OO*O--*,3**>#@+12;5=496525,pu3-oo*7",
"*=&*6a9499;@=:5837q**==&O$4@<58OOXO-:27>w@*@::53eq31;4=-3639:3i>",
"60#190=*y9#+&+*8==3**23&&&#4>-OO -=3O*:3-q0#1=;=6764923499=25q94",
"6q00#+@y4w2@>=,,**o*=u9+$#942u>*X6&*3937*212=*->67e,>6=##2&-*w94",
"#O1@#&qhqu9924:=<*=*;i2@&49#9>3e33=-O+,=>eq6,%*2*53i2y*2&==*o==3",
"*99@.$tsat9t4422=,=336;@491@90y<::=>*=4929647363--*3=9=+$@@*$=o>",
"r*-o@@*,s9>092y2e>=3=*3,#41#qy649q=,622;=:q23>,=*-3&,*%O&##&#&=0",
"*-we#@@2t1>1#=6640:*@*,;324190jy:12-,32=*$37>-,*3=#=***==+*X=Oo2",
"$Owe*3,$64**&=21ap*$$&O3e#2#420#;*-**-6;;;30=2:3w,-3-=a2OO0#4,@$",
"@**4;O**o2-*2203u9#21**3u43#1@#&*=%-==q91#223-85<*-***5O==oO+o++",
"29=%1=%*o%qr099=12=339;22o&2##=*O<,427u3=222$+-23-**=u=91#412#o2",
"649*2&oO;-r7juw:#@126963=*&**1+OO>%**66=,;623&3373,=33e;*40411#6",
"rOqa9&$&@:6*32=1+#2#==3*O&*=$*&OX*%-%r77=;:*,938-$=35*,>-o#10s0s",
">wpu26*1@;*O#01#4;4=*&@2:$&;23*@**>r3w29=2#;44a7O  oo*k2&o@#s5pe",
"iO5,O9:*O=oO@4@3#@#6*++=:@$;491#;-q6333411@@1#6d*  O-7,*O+1tee56",
"*&*qXX-,Oy@$=2643*,:=*+&-O>$*@144#%%**=404*:@==2,.O6q,**1@=2<,O.",
"X>*2- *-,3#3582=*2&9u1o**-:*:==#4==$*$*06=*&**=6%. OO*O6u&1&%5OX",
" XO;6*O**913,,65*we9t63:&*:O3=0991+oo o;w4,2*2*3.O*7>*5u,242-9Oo",
"O%,:*3 O29:O,858%*6#19r=;>,,f992;Oo    201oo>*%5 Odp7-$1yqO,-3>>"
};
