/* XPM */
static char *_[] = {
/* columns rows colors chars-per-pixel */
"64 64 37 1 ",
"  c black",
". c #2A2A2A",
"X c gray17",
"o c #3A3A3A",
"O c #000057",
"+ c #000058",
"@ c #000065",
"# c #000066",
"$ c #000072",
"% c #000073",
"& c #00007F",
"* c #484848",
"= c #494949",
"- c gray40",
"; c #676767",
": c navy",
"> c #00008C",
", c #00008D",
"< c #000098",
"1 c #000099",
"2 c #0000A4",
"3 c #0000A5",
"4 c #0000B4",
"5 c #0000B5",
"6 c #0000BF",
"7 c #0000C0",
"8 c #0000CA",
"9 c #0000CB",
"0 c #0000D5",
"q c #0000D6",
"w c #0000E0",
"e c #0000E1",
"r c #0000EB",
"t c #0000EC",
"y c #0000F5",
"u c #0000F6",
"i c #0050FF",
/* pixels */
"=,<<11111<<<1111111<1,**3233323332223323332233333333**,<<1<<<1>o",
".676777767676777767667.X0qqqqq00qqqqq0qqqqqqq0qq0qq0..999989999X",
" 767371764<44<44<71,,% X070917q4>,53763>27q6347q074> X8q6479941 ",
" 7412544<<747:55<>1<>: Xqq7544,5%>%%177:,>:,>%>22>:> X9976<477% ",
" 626,ew4<1<4231&%1>%%& X                             X979qq9711 ",
" 7216we:11175443>>1%%+ X7777676776776766766XX.XXXXX.XX9069711:% ",
" 74499776467754,>&%:,: X7qqq9644q448449qq76 X776744&X.9447<22:: ",
" 674698641:674231:&%OO X79que97q74549977747 .64424<& .9457,333: ",
" 7415662414,,322>11:%+ X69wqw4976q44616<471 X744511: .9q757632O ",
" 7322711166,$::,&<11%O .79985449667643:111& .67411%% .q1<4775%O ",
" 4<2733,467>>:%:::11%+ .6q989458q067&:3<1:$ X774<71% Xq1q7<44%+ ",
" 5341<63:1%1:$:1+%OO:O X6q7788990996::,7::+ X7<34<%% X0011::11+ ",
" 4141:331:<:1:O>,++O:+ .79764q44688744<1%%& .7333,,: Xq1,:1:<1+ ",
" 44<11,:%%:1:,&O+>O:%+ .79ue334431<<2531::+ .7633,,: Xq<<,%%%%O ",
" 415::>:1&+OO+++O++O++ X6qww33377132<3,<:%O X6146%%% X          ",
"                       X6076433777335::1:$+ X77757%: XXXXXX.XXXX",
"6q9797667797667 8996644 6847347767<44<<%%OO X47474,& X7766 q0qqq",
"q9756q973671751 994qq1q 7777q647763:,<O+:%O .441,1>% X6931 q079q",
"095437631441144 80q84<1 6947q73132:1<,OO:OO X45%%%:+ X6991 06999",
"8749945<1141<11 9q9855: 6977737<1:>>%%%::%+ .41%:%%O X731$ 0qq99",
"6349q81<4414%<< 904<45: 6774445<&%::$::%+OO .4<&%%O+ X7%&% qq999",
"66249r1511&&,11 94q<1<:                     .             X00665",
"93134741<5:><%% 945:11% X..XX.XXXXXX.XX.X.X.XX.XX99899998X.q7744",
"9734<4154<><:1% 9q52:%: .9999899999998998999847XX9e9e7764 Xq9444",
"88429444411>%%% 7q<33:% X8q97qqq9q696q81600q<6% .9w9ew753 Xqq444",
"8731398:1432,%: 71:,>%& .8079wyuqru7q660q77661% X9wwww731 .q9q67",
"641379865133,%: 41$$$%: .997qrruqurt917116<<7$% X896w737: Xqqq77",
"94844697:<,,>$%         .9qq99we67rr77111,7<1%$ X8w66673: .qqq99",
"73367577&>%:%O+ XX..X.X.X98q898767q777123<<%%$& .8ww763<> X067q9",
"74367741,:%::%% .999977XX866q9337q91771333,>,%% X9ew5577$ Xq6799",
"4343761:&%%%:O: X992642 X9q9q8226761766>23%>,>O X99e4547% Xqq54<",
"422123<::><1:O+ X966534 X9qq698946<1<77,$:%&>>+ .9973966: .q3344",
"5274>11,:><1:%+ X8743,& .9q71699761,<:,>>%++%OO .99e3994: Xq3311",
"474321::%@#,:%O X99393% .966016751>11::,,:O+:&+ X96e7345% Xqq111",
"15421<11%##%$:O .998,,: .91q<661<,&1<1&:%%:::@O X9e675%>: .07744",
"123<>111%%:%%%% X9997$% X97q<76>::$111:%%%%@##O X9e6414>% Xq7743",
"13:>1:11%:%O%:% X944$3: .971771%%%$&&:&%+O+OOOO X9e71441: .q4761",
"141:<:>$:O+$O+O .9449%& .                       .7961:1<: Xq523<",
"1342>1>%%%O:+$O X99393% XXXXXXX..X....X.X.X.XX.XX69961%&O Xqq23<",
"<421:,1>OO+O+O+ X9933%: .7677666666767667667767XX796q7<:+ .q44<2",
"                X9911%% X6qqqqqq97777767431q471 X6e77q2$O X     ",
"XXX..%%,,3231>:.X791<1% X9qeeq7699w044764<3<341 X777623%O X3422 ",
"X479qqqqqqqqqqqXX67211: .90ewe9999qq<111767541: X7e6<,%%+ X44<1 ",
".7qq0qq97906770 .774%&: X9qqq0tr999<1<<<15<1>4& .683>&$>O X41>, ",
"X7q99rt9qqq57qq .743%%$ .90q9qrrr1741<,,,2<1<1& X76,:,%%+ X4>1% ",
".qq09rrq457q049 X       X69q9qqrt0674<>>&:%<<1: .31<%%$:+ .31>% ",
"Xq696998444q633 X.XXXXXXX679w54q6076771<::<:%@@ X         X3,%: ",
"Xqq9529964470q7 .qq9774XX67we4459766<142>::%%O+ XX..XX.XX...XXX ",
".qq460937999<76 X0<q243 X7qq0954qqq61<11&&&%%OO .9998qqqqqqqqqq ",
"Xqqqq73q3811727 Xq68941 X7967999qqqq713>%:&&,$@ .9976998962q77< ",
"Xq6q566q95<@167 Xqq161> .707775700qq766%%%%:,,& X968rr889477641 ",
"Xq9550uq7261177 .086716 X6qq66q23qqq777>%%:%### X90qtwe992274<: ",
".q7q7yiu4474312 Xq9716> .76q44<113777111::%%$OO X94q5we9967<11$ ",
"X08q90uq6167##& Xq7891: X77q6321<<313%%44>>%@OO X9q85556611<1%: ",
"Xq7q9993321,#@& Xqq842: .74qq4q1<3<<31%542>>:%: X99654461,&<%%: ",
"X6q9971<46451&: .q96331 X6q47q731>,23%%1441>%%O X88464471>:,<%% ",
"Xq6q92381665,1% Xq6q1<< .6q7764277>,$>%%11<:%%O .99q938951:44%O ",
"X06q7531&3775>: .q07:&: X6774412677>:>>%#@@:OO+ Xqq92789841441O ",
"X973237:@&344,, X0971>% .69744q6177%%,>:%++%O++ X0972769841111O ",
".97,:3:6114%:%% .97&&:% X79q1qq7%:&:$%@@@++@$++ Xq97q7613>,11%+ ",
".7723:3%:%:>:,: .873>:: X779q7<4%:::%$++,>:+@+$ .qqq46<1><1,:O& ",
"X7411<11,,,><11X.721111.X664741<11<1,&%%111<%%,XXq761461<<11>,1 ",
"*332<1<111<<<<1=*2311<1**7e3322311<1111<11<11<1**q2211<1<1<1<1<.",
";;;;;;;;;;;;-;;;;;;;;;;;-;;;;;;;;;--;;;-;;;;-;-;-;;;;;-;;;;;;;;*"
};
