/* XPM */
static char *_[] = {
/* columns rows colors chars-per-pixel */
"64 64 44 1 ",
"  c gray16",
". c #2A2A2A",
"X c #4B4B4B",
"o c #4C4C4C",
"O c #505050",
"+ c #515151",
"@ c gray35",
"# c #5A5A5A",
"$ c #5D5D5D",
"% c gray37",
"& c gray38",
"* c #626262",
"= c #656565",
"- c gray40",
"; c #6A6A6A",
": c gray42",
"> c #727272",
", c gray45",
"< c gray48",
"1 c #7B7B7B",
"2 c #7E7E7E",
"3 c gray50",
"4 c gray52",
"5 c #868686",
"6 c #8D8D8D",
"7 c #8E8E8E",
"8 c #959595",
"9 c gray59",
"0 c #A0A0A0",
"q c gray63",
"w c gray67",
"e c #ACACAC",
"r c #B9B9B9",
"t c gray73",
"y c #C3C3C3",
"u c gray77",
"i c gray82",
"p c #D2D2D2",
"a c gray86",
"s c gainsboro",
"d c gray90",
"f c #E6E6E6",
"g c gray95",
"h c #F3F3F3",
/* pixels */
".o.o o.o o X X o o X.o o X o.X X.o o X.o o.o X.o o X.X X X.X.X o",
";-;&;&;*;&$adddadadddafaddd.X8ruspaapauir9; @@@#@@@@@@-&;*;*;&;*",
"-;--;---;-@dspayaaaiasuasp0 o8pu0r8q0008r&X.o20080q073<@@@%@@@$@",
"q080q080 -$dipusuiiyppyua0> Xrar0r0r9r0r8;o.o0sdffafuyr08000800q",
"saasur08 ;@fsrrwr0trrtwrr6- X0u008rtrr8q5*X X8ffyiuadfdafspasapa",
"trtrwr75 -@guwrtrtwr0t8tr3-.X@t0rr80w0r2;-o.X0sut0t0trw00tqr9t0e",
"uwewrq72.$@gar9t0tqwwwq0r0*.X@708tqtt9r5oXX X9du0r8w80qr8qe0tw0w",
"ur8u8w>; o@giqw0rrw0700rq>; o@@0rrwq0qt3ooo o0drt8w6rw70r8ttq6rw",
"wtrqw4@%..$iyrwr8r0w9wq0t2-..$-@7XXXXXooo  oo5dfqr88w5w0t0q7rr5q",
"008q5=@@ o@rhrwrq000q08t8;7. X@XoooXoo.X . @@@ip00q0www80r0rr8tq",
"5255&$XX..$0s0r006qqr8r0r3;X.X#o.     .X o $-#pr0r8r08052<>><>1>",
"-;@@@.   oO5dt9w767tw08703<o o@@$%560twrtw5o&$y025<><;--=@%@$@@%",
"    .X.o X-@diq00ww80r70r0*o oO5rtadgsaae2- -@q2<>-$@@ooooo X.X ",
" o X  o oX*@rs0r870r08w095&o. Xrudau8t0r95X.oooXoooXXXo    .. . ",
"XXooooooXX%%0pt8te86070t0&:o oOtdur000800*X.o  o .o..o O+ooXXXoo",
"-%ooooXo o-@5i8rw0rwr8r8t*5@  %tgrq8t0r8r-o.o@;-;; @$@@%#@@@@@@O",
"ww0e0w0ww. ;@iuw08we5qqqq3;-. $tg80rt9r0q*o o2tfa;#-7ww0www0weww",
"aiaaiaur5+ ;@0y0r07008r0302$..%rirr08t0r8;o otsir.@6iaddfadddada",
"rw0r0rr25o -@5wr9rr8r503-5-% .$rir02552=;-o.oair9.$esayutuuutuuu",
"r0w0r8025o @-@w05525--5&5-@ ..owq5q3XooXooo >dr00.@efrrwr0t0w8ww",
"r00r8rr2;o @-@1=;-;@@@o..   .  05XoX . . .  >drr8 $wat0w8e0w59q8",
"t0r0r805&o @-@.X o         .  oo*o  . .o .X 0drr0 @qi8rwt0r0w8ww",
"0r5700r2;o o&;%o..    . *$$*%$@000rr0007; +<ydr97 %8it8e0w9w760q",
"0887qr91@o.o9fddsirtq,o%<6rrupifddsdfdpw1 o6diwr5 @8yrwqr9rq77q0",
"00rt800>$o oair0wwtqwX&$6agdfiuyiuiyiui2;.o0dtw03 $2i8rqqwq8r0rq",
"er80t85=oo ofw0wrtqwr -$wdp0r8rw8rwtw08<@ o0gr9r; $@05>;--<<2608",
"<><><-@XoX.oarrt8r0r> $@wgrwrq6rr090r8r;@ o8hrt0;.- XX@@@@$@@=;-",
"-%@ooX.    od8r0rt07>.%@wg8r0wr8070t0q0*$ X0g8tq*.;o     .   Xo@",
"  ..  .o $%@frw9tqr7> o@whq0r806q7080rq*$ X8grr8; ;oooXXoo o... ",
"@1<20w0800@ dr5e0r98<o @0grq90706qr608r-@ Xqh0tr& ;@O@*-*;--;ooo",
"10ydsdsair5 drr870t9<o @0duw0t0t57070t8;X o0aqqr* $rfauq,;@@$@@-",
"<raiiyttwrO g0wr70re2@ %7apr805q77t0t88&o X0dt0q- $d80uddsddfqo=",
"<dyrr9r0r95 hwr0rr8t2$.o*idrrwqr8r770r2;o.O0s0r0* $f08rr90t088o*",
"1auw8tqt8t5.gw8wr0r8<- .;rhrrwqq7077r85@o.%qstt8; @ftr90tr9r0,o#",
"<drqrqtt7t* drrtqq0r<*.o*0gur0r8qw8t0r>@ o+0aeqt* $pr0rt80r0r>o@",
"1drt00ewr8;.du7w6rrw,;. %3ayr07w90e000>o .%0sqr&; $irwrqt90rw;o@",
"1auqtt0r9r- pf8er00q>;. $-udt8r0r0r80<=X o@7r7*XXoOtr0rw0rq8t;oo",
"1durw0rqt0*.uf6r8qqr2; .o&qur06<>-@$Xooo XO:ooooO@ 5*@-;-;=-;-oX",
"<drqrr9r6r-.wsw6rr803; .X=@0q>;@X .   .  o@&@@&-;-;.  .  .     X",
"<syq8wr0t8; 7dret80r1*.  *@o.o.   o.o. X o@-;@@$@@@$@@ooXXoooXXX",
"<durt8wt0t= ;g0wq0r8<-  o@@#XoXoo$@%O*$@%@@;-77777766767676765X*",
"<fr0qr9r03; @gt0870r2;...O<6767777777776q00wryriuiuiuuiuiuiui7X*",
"<iurr0t0t*. &gw0t0081;o  o6pupypuipuiyiupyafdggggggghgggsdaa0< $",
"<au0r0rt8; o+g0r7e9r<*o . 6ipggghhddggfgggghddsauuypuryiyupu7; &",
"<uurqr900* o@drr9tqq,;o  .7ipyiyiuiruitupuurtww00rqt800r8rqr3;oo",
"$i80t8525-.X@s90r8r02;X   <uduqq8000t9trq0wrrr07w9rre8r0ttw02- o",
"@urrw0;--  O@ur80tq85-o . @idu0qqtqe0wt90wrr8w0w0q68ww0r8r0r2;oX",
"@777;-;-- ooOwer8003<-o .. udsrr8000708r0w8re680r8qrq7507w005-.o",
"@o.. ;--; oO$6<,<1,<--o.  oraa08rqr80r076ww8r0t00r8q7008tq593;.o",
"-;-@o  . ooOoXooXoooooo    0ayr00t9t6q9w6e0w7t8060009r07qq872;.o",
"@%@@@$@X. X$oX . .. . .   o8w2552552t0rr80680060qt8r00t8q00w2: o",
"@6rtrrq0<$$-oo .o .X  o.o.o-@oo o o.;537q6767766677767777676<& X",
"@risdaddurt02>;$XXoooXooooO;@@ooXooo %-=;=;-;-;---;-;--;-;-=- Xo",
"@ratr0usdddutrrrrrrwq09772<<&;##@O@oo o o X X.o X         ..  XO",
"@tfrrrurqtuddfsdafsddfdiaiyrrtrr9$-@oXooXoXXo  o X X.o o o.ooo@$",
"@rdt8r76tw07r8t0r0rr8tqrrrisdsau8X#*%@@oXo ooXXoXXooXoXoooXoO#$=",
"@tirtr0r000wr80t75qr709qr8r0trr7<.o&%radw7$$@---@@O@@@+@@O@@*;--",
"@rpr8t76wr9rrw87r7q7e8r0t0t8trw<- o@@drtddfsy--%uddsdddssirw6%@-",
"@r81,1><><<><,<<,1,1>11><>1>1><;-o o@suryryuu>;6dwrtqt8rwr0rsw.-",
"@0<XXXooXXoXoXoooXoooXoXoooooooooX .%uruuw>w9<@urqr8rrr8tqt8r= ;",
"@o      .. ...   .    . . ..  .   . *o#o*<><1>%dwwwrr0etwwr0q* ;",
"=%ooo.X .o  X..o o  X  X  o. X .X X O&:XX .   o-;==---;&-;-;&;.-",
"-;&-@@@%$@$%oooXooXoXooooooooooXooXXo*;*-oXXooo*- ...   ... .  ;",
"XooooXXooXoXooXXooooooXoXXoXoXoooooXXXooXoXooooooXXXooXXoXXoXoXo"
};
