/* XPM */
static char *_[] = {
/* columns rows colors chars-per-pixel */
"64 64 35 1 ",
"  c #412702",
". c #412802",
"X c #422802",
"o c #422803",
"O c #58360F",
"+ c #59360F",
"@ c #593710",
"# c #643916",
"$ c #643A16",
"% c #653A16",
"& c #653A17",
"* c #6E4311",
"= c #6E4411",
"- c #6F4411",
"; c #6F4412",
": c #804518",
"> c #804519",
", c #804619",
"< c #814619",
"1 c #8A481E",
"2 c #8A481F",
"3 c #8B481F",
"4 c #8B491F",
"5 c #9F4E22",
"6 c #9F4E23",
"7 c #9F4F23",
"8 c #A04F23",
"9 c #A95128",
"0 c #A95129",
"q c #A95229",
"w c #AA5229",
"e c #CA5F37",
"r c #CA5F38",
"t c #CB5F38",
"y c #CB6038",
/* pixels */
"&$#&$$$&######&&$&$&$#&&&$#&##%$#$##$&#&#%#$$#$&$&$#&&#%#&$$$#%&",
"5588865886765588888888588858877858657578786878886888878586687788",
"eeeeteteeteettetteeeeeeteeeeeetteteteeeeetetteeeeeteteeeetetteet",
":,:::,:@:.+:::,::,>:,,:::O:oO:<,:O:o+::::::+:oO:,,,:::::::O:.O:,",
"**6wwww:to:r4-*=*q0*8*7-*,t.:tw*w:t.:y4**-2:eo:t*q*-0*w*wq:yo:e6",
"**89004,eo,e6*-=:wq=5=5**,to,ew*w:to:ew3=1w:to,e-w*-q*9*w0:eo:t6",
"*-2w9w::eo:t9:=*:qq*5*7-*:r.:t6-w:eo:tww4ww,to:e=w-*w*9*09:eo:e6",
":*:5qw:,e.,tq:*=4w6*8=8**:e.:e8=w,e.:t99qww:e.:t-w**q*w=0w:eo:e8",
"5=*2w2*:yo:tw2*:8w8-8-8*=,eo:e5*q:eX:ewwqww,eo:e*w**w*9*89,to:e:",
"5*:*2,*,eo:tw7-4wq1*8*7*-:e.:e4*9:to:e9wwww:to:r*w*-w-9*8w:tX:t:",
"w:*=:-*:eo,e9w35qw4*8*8*-:eo,e3-w,e.:eqq9ww:t.:t*9=*9*q*4w,to:t:",
"9:*-**::e.,tw95qwq:*7*5**:e.:e*-w,to,ew09ww:eo:e*w**q*w*49,to:e-",
"5q*--:q:yo:eww5w99:=8-5**:e :e*4w:to:t7wwq9:to:e*w=-q*w:*q:to:t*",
"5w,-*:9:to:e9www98-*8*8*-,e.:y*4w:e.:e590q6:t.:e-w**w*w:*9:e.:e*",
"1ww*:wq,to:ewwwww5**6-5*-:t.:t-ww:eo:e4w9w8:e.,e-w=*w*w:*q,t.:y=",
",www:q4,to:t5w9qw5=*7=8*-:to:t20w:eo:e-8982:to:t-w==w-9,*q,e.:e,",
"*8q94q:,eo:e899q01**6-8*=:eo:e4w5:e.:e*283-,to,t-w=*q=w1*w,y.:e:",
"*89qqw::eo,r1ww992=*8*7-*:eo,tq96:eo:t**3**:to:e*q*-w*94*7:eX,e:",
"*45qwq-:eo:r4qwqq,-*5*6-*:eo:eww4:t ,e-****:e.:e-w**9*w6=8:e.:t8",
"*<5qq1-:eo:e:59ww,*:8*8*-:e.:tw84:t.,e*-*-*:eo:e*q-*w-w7*8:to:t6",
"**30w:-,to,e,59q5-=:5*8*-,eo:e96=,e.:t-*--*:eo,t-9**w-w6-4:t.>t8",
"--:wq:-:e.,e-10q6=*:8*8-*:e.:e94-,eo:e1-*=4,eo:e*w*-q-9w*4:to:e7",
":*:4,**,t ,t-3w94**28*6-*:e.:e8-*:to:e82*48,r.:e-0**w*69-*:to:t8",
",*-:-*,:e.,t-:881--28*7**,t.,t4-*:t.:tw838q,r.:e*q**0*8w:*:ro:t8",
":=**=*::t.,t-:42:**44*8-=:eo:e*-*:t.:eww8w9:to:t*9--9*4w:=,t :t4",
"5*=*=*7:t.:e**,:*=-8:*8**:eo,t-**:to:e9wqwq,eo<e-w-*w-4q4*:eo:t:",
"8*-***7:e.:e-;-**--5,*8=*:eo:t=*::ro,t09wq0:t.:e*9=-9*:w3*:eo:t,",
"7:***,2:e.:t==**--:q=-8**:t :t**,,t.:tw99ww:to:t-q=*w*:w8::eo:t*",
"4:=--:::t.:t*--**-1w-=8*-:eo:t**2,t.:e89q9w:to:t*w-*0*:w7:,eo,e*",
":8***8::e.,e==*=-*2w*-8**:e :e*-5:t :e7wq9w:y.:e-w**9*-qw4*eo,e*",
":8<--8*,eo:t-*****5w*-7-*:e.:e-:5:e.:e2w9w7:e.:e-w-*q**9q2:rX,e*",
"*2:*83*:t.,e:-**-*5w*-8-*,eo:e-49<eo,e18wq8:t.,e*w**q=*5w7:e.:e*",
"-,6,8:*:e.,e2----:w8-,8**:eo,e:8q:eX:e*89w4:to,t*9**w**898,to:t*",
"*:8:8:*:to,e8:**=4w8-:8**:eo<t4ww,to:t*1q6*:e.,t*q*=9:-3wq,eo:e*",
"**354**:t.:tw4*-:1w3-46**:to:t7q9:to,e*;82=:to:r*w**w:*4w9:eo:e:",
"**:4:**,y.:e95:-:w9<-48**,eo,twwq,to:t*-3*=,eo:e*w-*9:-:ww:to:e:",
"-**:-*-,eo:e9w4*2q9:*28**:e.,eqw6:eo:t--***,e.:t*9**q:-:9w:y.:e4",
"-*****=,to:tw992ww9-*88--:to:rwq6:eo:t*---*:eo:e*0**w1*:ww,t.:e6",
"**-**-::ro:t9qq00w8*=87-*:to,eq92:e.:e*-*--,eo:e*w=*w1*-6w,to:e8",
":=****::eo:e8w99ww8*-98-*:t.:ew82:t.:e1**-*:t.:t=w**08-*8w:eo,e6",
":-=*--4:to,e8qq9ww4*-98**:t.:t96-,eo:t1*-*-:to:e*9--88*-29<to:e,",
"6:**-,2:to:e290w9w:=*94--,t.:ew4;:eo:e84*-1,y :e*9**6w-*4w:eo,e:",
"8:**-:8:eo,t:9qwqw***w1=*,eo:e72*:to:tw4;22:t.:t*9--40:=:7,eo,e*",
"71:*:48:to,e-8qwq8*=:q***,e.:e8-*:eo,t98428:eo,e-w*=49:*:5,t.:t-",
"65:::84:eo:e*20994-=2q*=*:t :e1**,eX:rw9450:to:t-w*-:0:-<4:to:e*",
"182:48::to:e-,795:-*8w--*:to:e=**:eo:tw95qw,y ,e-w**,w4=*3:eo,t*",
":68367,:e.>t==:81=--89-*=,e.:t**,,to:twwww9:e.:t*w**:q4:-,:eo:t*",
":58168*:to:t-**::--*q8---,e.,e**::to:twwwwq,t.,e*q--:w7,-,:ro:t-",
"*8qwq6=,eo:r:******:q8-*-:eo<e*=1:t.,ewwww8:t.:t*q-*=98:*::r ,e*",
"=3ww96*:t.,e:=-*--*2w4-**,yo:y-,8,eo:t8w9q6,t.:r*w---8w2==:to,e=",
"-,7wq8-:e ,t3**-*-*8w4*;*:eo,e;4w:t.<t89ww4,tX:e*0-=*5q4:*:to:e*",
"*:6ww4-:eo:e8:--*;*89*-**:eo:e:89:eo,t4qqq4:e.:t*w**-4w6:*:t.:t:",
"-=2q83*:eo:tq:-==*:w8****:to:e8qw,eo:e29w8::to,t-w-**4w54*:t.:e,",
"**:68:=:e :eq4*-=-4w5-=1*,to:e9qw:t.,e,7q8::r.:e*w,=-:891::to:e4",
"*=:62:*:e.:t88,***8w4-=2-:eo:e9ww:e.:t:892-:t.:e*0:-*:3q7::t.:e1",
"**-42-*:tX:t8w:==:5q*=-6*:to:eww9,to:e-28:*:r.,e=w:**-2w8::to,t8",
"-**::-*:t.:t495:-:9q*--8-:e.:eqww:eo:t*,4*-:e.:t-9:--=:5w::to,e8",
":-****,,to:t*8w6,998**-7*:eo:tq9w:eo:e==:=-:e.,e*82*--:2w8,r.:ew",
":--*--::eo:t*4ww9w91***w*:eo:tqw8,to,e--**=:e.:t*65=--*1w7:t.:tw",
"4***--8:eo:t*=wqww6---4q-:t.:tqq8,e.:e*-*-*:eo:e-28:-*-:56:eo:ew",
"4:***:8:e.:t-=45w74***8q*:to:tw83,to,e-**-*:t.,t-4w:-***14<eX:tq",
"8:***,8:eo,e*-*472*=*=89*,e.:tw82:e.:t****-,eo:e;-w,**--*:,yo:tw",
"84==*,5,to:e-*-*3-**-89w2:to:t84-:to,e-=*-*:e.,t1*w4-*=***,eo:ew",
"4131342:ro:t4=--*=**23444,to:e2*-:to:t2*--4:e.,e4*44*=***-:eo:r4"
};
